<svg width="24" height="24" viewBox="0 0 24 24" fill="none" xmlns="http://www.w3.org/2000/svg">
<path d="M22.2 0H1.8C0.8 0 0 0.8 0 1.7V22.2C0 23.1 0.8 23.9 1.8 23.9H22.2C23.2 23.9 24 23.1 24 22.2V1.7C24 0.8 23.2 0 22.2 0ZM7.1 20.4H3.6V9H7.1V20.4ZM5.4 7.4C4.3 7.4 3.3 6.5 3.3 5.3C3.3 4.1 4.2 3.2 5.4 3.2C6.5 3.2 7.5 4.1 7.5 5.3C7.5 6.5 6.5 7.4 5.4 7.4ZM20.5 20.3H17V14.7C17 13.4 17 11.6 15.1 11.6C13.2 11.6 13 13.1 13 14.5V20.2H9.5V9H12.8V10.5H12.9C13.4 9.6 14.6 8.6 16.3 8.6C19.9 8.6 20.6 11 20.6 14.1V20.3H20.5Z" fill="white"/>
</svg>
